<svg width="300" height="82" viewBox="0 0 300 82" fill="none" xmlns="http://www.w3.org/2000/svg">
<path d="M47.1938 27.5694C48.8456 27.5421 50.4845 27.8646 52.0025 28.5157C53.5204 29.1667 54.8829 30.1314 56.0003 31.3463L59.7793 27.5694C56.4178 24.3014 51.8936 22.5003 47.2021 22.5624C37.4621 22.5624 29.3276 30.4932 29.3276 40.2214C29.3276 50.7033 36.703 57.8762 47.2021 57.8762C49.523 57.872 51.8203 57.4112 53.9627 56.5201C56.1051 55.629 58.0507 54.3251 59.6881 52.6829L56.0003 49.0012C54.8833 50.2209 53.5241 51.1951 52.0094 51.8618C50.4946 52.5284 48.8575 52.873 47.2021 52.8734C40.2041 52.8734 35.0023 47.208 35.0023 40.2214C35.0023 33.2348 40.1958 27.5694 47.1938 27.5694Z" fill="white"/>
<path d="M72.0704 37.2935C66.3957 37.2935 61.4759 41.9194 61.4759 47.5849C61.4759 53.7225 65.6241 57.8763 71.5975 57.8763C74.0532 57.8763 76.231 57.0273 77.4588 55.7062V57.4042H82.6606V47.5849C82.6606 41.4473 78.2179 37.2935 72.0704 37.2935ZM72.0704 52.9687C71.3648 52.9751 70.6653 52.8395 70.0134 52.57C69.3616 52.3004 68.7708 51.9025 68.2764 51.4C67.782 50.8975 67.3941 50.3007 67.1358 49.6452C66.8775 48.9897 66.7542 48.289 66.7731 47.5849C66.7731 44.4705 69.0422 42.201 72.0704 42.201C75.1898 42.201 77.3634 44.4664 77.3634 47.5849C77.3634 50.6081 75.1898 52.9687 72.0704 52.9687Z" fill="white"/>
<path d="M93.6325 23.0345H88.3353V37.7656H85.6888V42.6773H88.3353V57.4041H93.6325V42.6773H96.2791V37.7656H93.6325V23.0345Z" fill="white"/>
<path d="M109.512 37.2935C103.837 37.2935 98.9215 41.9194 98.9215 47.5849C98.9215 53.7225 103.07 57.8763 109.039 57.8763C111.499 57.8763 113.672 57.0273 114.904 55.7062V57.4042H120.106V47.5849C120.114 41.4473 115.668 37.2935 109.512 37.2935ZM109.512 52.9687C108.806 52.9751 108.107 52.8395 107.455 52.57C106.803 52.3004 106.212 51.9025 105.718 51.4C105.223 50.8975 104.835 50.3007 104.577 49.6452C104.319 48.9897 104.196 48.289 104.215 47.5849C104.215 44.4705 106.488 42.201 109.512 42.201C112.635 42.201 114.809 44.4664 114.809 47.5849C114.817 50.6081 112.644 52.9687 109.512 52.9687Z" fill="white"/>
<path d="M129.763 23.0345H124.466V57.4041H129.763V23.0345Z" fill="white"/>
<path d="M148.297 37.7656L143.112 51.4571L137.719 37.7656H132.41L140.449 57.4041L139.113 60.622C137.843 60.8005 136.672 61.4061 135.793 62.3388C134.914 63.2714 134.38 64.4754 134.279 65.7519C134.178 67.0284 134.516 68.3012 135.237 69.3601C135.959 70.4189 137.02 71.2006 138.246 71.5761C138.784 71.7388 139.343 71.8212 139.905 71.8204C141.047 71.8198 142.162 71.4727 143.101 70.825C144.041 70.1774 144.761 69.2598 145.166 68.1942C145.571 67.1285 145.641 65.965 145.369 64.8582C145.096 63.7514 144.493 62.7535 143.639 61.997L153.594 37.7656H148.297ZM143.299 67.2317C143.246 67.4004 143.18 67.5651 143.104 67.7245L143.058 67.8198C142.981 67.9629 142.895 68.1012 142.801 68.2339L142.747 68.3043C142.653 68.4297 142.55 68.5487 142.44 68.6605L142.407 68.6978C142.289 68.8132 142.165 68.921 142.033 69.0208L141.95 69.0788C141.819 69.1744 141.68 69.2603 141.536 69.3356L141.478 69.3646C141.343 69.4307 141.204 69.4888 141.063 69.5385L140.992 69.5675C140.836 69.6169 140.677 69.6543 140.515 69.6793H140.416C140.25 69.7056 140.082 69.7194 139.914 69.7207H139.876C139.735 69.7207 139.59 69.7207 139.462 69.6876H139.341C139.184 69.6635 139.029 69.6275 138.877 69.5799C138.374 69.4281 137.911 69.1666 137.522 68.8141C137.134 68.4617 136.828 68.0273 136.628 67.5423C136.54 67.3311 136.472 67.112 136.425 66.888C136.402 66.7758 136.386 66.6624 136.375 66.5484C136.324 66.076 136.371 65.5982 136.512 65.1444C136.563 64.9751 136.629 64.8103 136.707 64.6516L136.753 64.5564C136.829 64.4124 136.915 64.274 137.01 64.1422L137.064 64.0718C137.157 63.9454 137.258 63.825 137.367 63.7115C137.379 63.7015 137.39 63.6904 137.4 63.6784C137.518 63.5618 137.644 63.4539 137.777 63.3554L137.86 63.2974C137.992 63.2016 138.131 63.1158 138.275 63.0406L138.333 63.0116C138.468 62.9455 138.606 62.8874 138.748 62.8377L138.823 62.8087C138.978 62.7594 139.136 62.7206 139.296 62.6927H139.399C139.566 62.6699 139.733 62.6574 139.901 62.6555H139.939C140.077 62.6569 140.216 62.668 140.353 62.6886H140.474C140.631 62.7136 140.786 62.7482 140.938 62.7921C141.84 63.0701 142.594 63.6933 143.037 64.5253C143.479 65.3574 143.573 66.3305 143.299 67.2317Z" fill="white"/>
<path d="M169.291 45.3195H161.634C161.42 45.3289 161.206 45.2938 161.007 45.2163C160.807 45.1389 160.626 45.0209 160.475 44.8698C160.323 44.7186 160.205 44.5377 160.127 44.3385C160.05 44.1393 160.015 43.9262 160.024 43.7126C160.04 43.3007 160.218 42.9116 160.519 42.6296C160.82 42.3475 161.221 42.1951 161.634 42.2052H172.888V37.7656H161.161C159.564 37.7922 158.04 38.4374 156.911 39.5648C155.781 40.6922 155.135 42.2137 155.108 43.8079C155.106 44.6021 155.26 45.3891 155.564 46.1234C155.867 46.8577 156.312 47.5249 156.875 48.0866C157.438 48.6482 158.106 49.0932 158.841 49.3958C159.577 49.6985 160.365 49.8529 161.161 49.8502H168.831C169.037 49.8384 169.244 49.8687 169.438 49.9392C169.632 50.0098 169.81 50.1191 169.961 50.2606C170.111 50.402 170.232 50.5726 170.314 50.762C170.396 50.9513 170.439 51.1554 170.44 51.3618C170.45 51.5753 170.414 51.7885 170.337 51.9877C170.259 52.1869 170.141 52.3678 169.99 52.519C169.838 52.6701 169.657 52.7881 169.458 52.8655C169.258 52.943 169.044 52.9781 168.831 52.9687H155.673V57.4042H169.291C170.885 57.3622 172.402 56.7112 173.528 55.5853C174.655 54.4595 175.307 52.9447 175.347 51.3535C175.356 50.5576 175.206 49.768 174.904 49.031C174.603 48.2941 174.157 47.6248 173.593 47.0626C173.028 46.5003 172.357 46.0564 171.618 45.7571C170.88 45.4577 170.088 45.309 169.291 45.3195Z" fill="white"/>
<path d="M184.805 23.0345H179.508V37.7656H176.861V42.6773H179.508V57.4041H184.805V42.6773H187.452V37.7656H184.805V23.0345Z" fill="white"/>
<path d="M225.661 40.1262C226.688 39.2092 227.513 38.0894 228.084 36.8376C228.655 35.5858 228.96 34.2293 228.979 32.8538C228.979 27.47 225.005 23.0345 219.144 23.0345H198.818V57.4083H204.488L204.397 27.9504H218.584C221.517 27.9504 223.504 29.9341 223.504 32.858C223.504 35.7818 221.512 37.7656 218.567 37.7656H207.616V42.6773H218.849C221.782 42.6773 223.769 44.6569 223.769 47.5849C223.769 50.5128 221.782 52.4966 218.849 52.4966H207.616V57.4041H219.322C225.283 57.4041 229.162 52.9687 229.162 47.5849C229.151 46.1631 228.833 44.7605 228.229 43.473C227.624 42.1856 226.748 41.0439 225.661 40.1262Z" fill="white"/>
<path d="M242.116 37.2935C236.442 37.2935 231.526 41.9194 231.526 47.5849C231.526 53.7225 235.674 57.8763 241.644 57.8763C244.103 57.8763 246.277 57.0273 247.509 55.7062V57.4042H252.711V47.5849C252.711 41.4473 248.264 37.2935 242.116 37.2935ZM242.116 52.9687C241.411 52.9751 240.711 52.8395 240.059 52.57C239.408 52.3004 238.817 51.9025 238.322 51.4C237.828 50.8975 237.44 50.3007 237.182 49.6452C236.924 48.9897 236.8 48.289 236.819 47.5849C236.819 44.4705 239.092 42.201 242.116 42.201C245.24 42.201 247.414 44.4664 247.414 47.5849C247.414 50.6081 245.24 52.9687 242.116 52.9687Z" fill="white"/>
<path d="M270.112 45.3195H262.451C262.237 45.3289 262.024 45.2938 261.824 45.2163C261.625 45.1389 261.444 45.0208 261.293 44.8696C261.142 44.7184 261.024 44.5374 260.947 44.3382C260.87 44.139 260.835 43.926 260.845 43.7126C260.862 43.3014 261.039 42.913 261.339 42.6311C261.639 42.3491 262.039 42.1962 262.451 42.2052H273.705V37.7656H261.978C260.384 37.7964 258.864 38.4435 257.738 39.5705C256.613 40.6974 255.969 42.2165 255.942 43.8079C255.94 44.6021 256.094 45.3891 256.397 46.1234C256.701 46.8577 257.146 47.5249 257.709 48.0866C258.271 48.6482 258.94 49.0932 259.675 49.3958C260.411 49.6985 261.199 49.8529 261.994 49.8502H269.631C269.838 49.8373 270.045 49.8664 270.239 49.936C270.434 50.0055 270.613 50.1139 270.764 50.2546C270.915 50.3952 271.036 50.5652 271.12 50.7542C271.203 50.9431 271.247 51.1471 271.249 51.3535C271.26 51.5685 271.225 51.7833 271.148 51.984C271.07 52.1848 270.951 52.3672 270.799 52.5194C270.647 52.6715 270.464 52.7901 270.263 52.8675C270.062 52.9449 269.847 52.9794 269.631 52.9687H256.494V57.4042H270.112C271.705 57.3612 273.221 56.7097 274.347 55.5839C275.473 54.4582 276.124 52.944 276.165 51.3535C276.174 50.5578 276.024 49.7682 275.723 49.0313C275.422 48.2944 274.977 47.6251 274.413 47.0628C273.849 46.5005 273.178 46.0565 272.439 45.7571C271.701 45.4577 270.909 45.3089 270.112 45.3195Z" fill="white"/>
<path d="M300 47.5849C299.623 41.1657 295.553 37.2935 289.406 37.2935C283.731 37.2935 278.815 41.9194 278.815 47.5849C278.815 53.7224 283.258 57.8763 289.406 57.8763C290.759 57.8798 292.101 57.6147 293.351 57.0964C294.602 56.5781 295.736 55.817 296.69 54.8572L293.475 51.5441C292.056 52.8652 291.11 53.3373 289.406 53.3373C288.192 53.3739 287 53.0029 286.023 52.2836C285.045 51.5643 284.337 50.5383 284.013 49.3698H299.996L300 47.5849ZM284.108 45.3195C284.469 44.2059 285.178 43.2375 286.132 42.5574C287.086 41.8772 288.234 41.5214 289.406 41.5425C292.147 41.5425 294.039 43.0542 294.798 45.3195H284.108Z" fill="white"/>
<path d="M32.9821 12.358C33.709 12.5783 34.3461 13.0253 34.7999 13.6335C35.2538 14.2417 35.5006 14.979 35.5042 15.7374H57.6057C57.6082 15.1814 57.7411 14.6337 57.9937 14.1382C58.2463 13.6427 58.6116 13.2131 59.0604 12.8838C59.5091 12.5545 60.0289 12.3347 60.578 12.242C61.1271 12.1492 61.6903 12.1861 62.2226 12.3497C62.4648 12.4243 62.6983 12.5243 62.9195 12.6479L70.1705 0H24.1465L31.244 12.271C31.8217 12.1556 32.419 12.1855 32.9821 12.358Z" fill="white"/>
<path d="M18.6336 37.5295C18.8678 37.6025 19.0942 37.6982 19.3097 37.8153L30.1531 18.8269C29.4589 18.4245 28.9213 17.7998 28.6277 17.054C28.334 16.3082 28.3014 15.4852 28.5353 14.7186C28.6718 14.278 28.8914 13.8675 29.1824 13.5093L22.0973 1.24243L0 39.7576H14.2324C14.5353 38.8903 15.1629 38.1738 15.9834 37.7584C16.804 37.343 17.7538 37.261 18.6336 37.5295Z" fill="white"/>
<path d="M60.0324 69.6834C59.3002 69.4591 58.6599 69.0053 58.2063 68.3891C57.7528 67.7729 57.5102 67.0273 57.5144 66.2626H35.5291C35.5328 66.6204 35.481 66.9767 35.3756 67.3187C35.1182 68.1584 34.5591 68.8736 33.8057 69.3269C33.0523 69.7802 32.1578 69.9396 31.2938 69.7746L24.2253 82H70.1705L62.8988 69.3314C62.4721 69.5866 61.9966 69.7497 61.5029 69.8104C61.0092 69.871 60.5083 69.8277 60.0324 69.6834Z" fill="white"/>
<path d="M28.5643 65.2438C28.8268 64.3886 29.4031 63.6638 30.178 63.2146L19.2475 44.0771C18.805 44.3113 18.318 44.4497 17.8183 44.4831C17.3186 44.5166 16.8175 44.4443 16.3476 44.2712C15.8778 44.098 15.4499 43.8278 15.0918 43.4782C14.7337 43.1286 14.4536 42.7075 14.2697 42.2424H0L22.1346 80.8114L29.228 68.5445C28.8527 68.092 28.5956 67.5537 28.4798 66.9777C28.364 66.4016 28.393 65.8059 28.5643 65.2438Z" fill="white"/>
</svg>
